<svg xmlns="http://www.w3.org/2000/svg" version="1.1" viewBox="-5.0 -10.0 110.0 135.0">
 <path d="m85.258 36.543c0.66406 3.0156-3.043 9.3398 7.0625 22.012 1.2109 1.5156 0.64453 3.75-1.1367 4.5117-1.418 0.60547-2.9258 1.0117-4.4961 1.2891-0.51562 0.089843-0.87109 0.54688-0.83594 1.0703l0.23047 3.4258c0.082031 1.2383-0.41016 2.5-1.582 3.0703l-2.6953 1.3203 3.0156 3c0.45703 0.45703 0.33594 1.2188-0.22656 1.5195v0.003906l-1.5742 0.83594c-0.50391 0.26953-0.78125 0.73828-0.77344 1.3008l0.035156 3.2969c0.027344 2.4023-1.9219 4.332-4.3242 4.2812l-6.6094-0.13672c-1.4922-0.03125-2.7695 0.83984-3.2852 2.2422l-2.4492 6.6523c-0.14062 0.38672-0.50781 0.62891-0.89844 0.62891h-43.754c-0.66406 0-1.168-0.67578-0.86719-1.3633l4.4766-10.996c0.42969-1.0586 0.33594-2.1484-0.26953-3.1172-7.5859-12.043-17.262-24.27-17.262-38.93 0-21.723 17.609-39.332 39.332-39.332 19.516 0.003906 36.004 14.316 38.887 33.414zm-18.27 23.152c-0.21094-0.37891-0.39844-0.625-0.83984-0.78125-1.1289-0.39453-2.3594 0.71875-1.7422 2.0273 0.48828 1.0352 2.1914 1.0469 2.625-0.19531 0.10938-0.33203 0.10547-0.70703-0.042969-1.0508zm1.6953-0.875c-0.41016-0.875-1.1914-1.4961-2.0586-1.7539v-3.0391c0-0.52734-0.42969-0.95703-0.95703-0.95703h-4.9453v-9.8359h6.3477c0.3125 1.0469 1.1055 1.8516 2.1016 2.1992 2.7812 0.97266 5.3984-1.9062 4.1172-4.6055-1.293-2.7188-5.3359-2.4531-6.2188 0.49219h-6.3516v-9.8359h4.9453c0.52734 0 0.95703-0.42969 0.95703-0.95703v-3.0352c1.0547-0.31641 1.8516-1.1094 2.1992-2.1016 0.97266-2.7852-1.9023-5.4023-4.6055-4.1172-2.7227 1.293-2.4531 5.3359 0.49219 6.2188v2.082h-3.9883v-3.2031c0-1.668-1.3633-3.0352-3.0352-3.0352h-4.3789v-5.5312c1.0469-0.3125 1.8516-1.1055 2.1992-2.1016 0.96875-2.7695-1.875-5.4023-4.6055-4.1172-2.707 1.2734-2.4648 5.3359 0.49219 6.2188v5.5312h-7.168v-5.2969h0.003906c0-7.0078-10.438-9.5586-12.516-1.0195-1.5586-0.32812-3.2188-0.11719-4.707 0.55469-3.7461 1.6914-5.5742 5.6953-4.5898 10.102-7.7344 1.9102-9.75 10.727-1.9414 14.602-7.8086 3.8789-5.793 12.691 1.9414 14.602-0.64453 2.8789-0.066406 5.4375 1.3398 7.3359 1.8125 2.4492 4.9961 3.7773 7.9375 3.2383 2.0742 8.6289 12.531 6.0547 12.531-0.95312h-0.003906v-5.2812h7.168v5.5312c-0.875 0.26172-1.6328 0.87109-2.0547 1.75-1.2891 2.6719 1.3086 5.5898 4.1172 4.6094 3.043-1.0664 2.9531-5.4336-0.14453-6.3633v-5.5312h4.3789c1.668 0 3.0352-1.3633 3.0352-3.0352v-3.2031h3.9883v2.082c-3.1016 0.92969-3.1914 5.2969-0.14453 6.3633 2.8086 0.98438 5.4062-1.9258 4.1211-4.6016zm-15.012-44.797c-0.21094-0.37891-0.39844-0.625-0.83984-0.78125-1.1953-0.41797-2.3281 0.82031-1.7695 1.9805s2.2305 1.0469 2.6484-0.14844c0.11719-0.33203 0.11328-0.70703-0.039063-1.0508zm-0.042969 56.609c0.16797-0.40234 0.24219-0.69922 0.085938-1.1484-0.41797-1.1953-2.0898-1.3086-2.6484-0.14844-0.55469 1.1523 0.57031 2.3984 1.7695 1.9805 0.32812-0.11719 0.61328-0.35156 0.79297-0.68359zm-30.375-29.305h19.078v-23.289h-0.003906c0-3.9023-4.4688-5.6445-6.9414-3.707-0.84375 0.66016-1.5078 1.7578-1.8555 3.3516 0.76172 0.41406 1.457 0.99609 2.0391 1.7461 0.054688 0.066406 0.10156 0.14062 0.14063 0.22266l1.8477 4.082c0.21484 0.48047 0.003906 1.0469-0.47656 1.2617s-1.0469 0.003906-1.2617-0.47656l-1.8008-3.9766c-0.83594-1.043-1.9727-1.6016-3.1797-1.7344-2.1133-0.23438-4.2891 0.80859-5.5547 2.5742-1.1016 1.5352-1.5156 3.6641-0.96094 5.9805 1.1406-0.10156 2.375-0.058593 3.6875 0.15234 0.51953 0.082031 0.875 0.57031 0.79297 1.0898-0.082032 0.51953-0.57031 0.875-1.0898 0.79297-3.9492-0.63672-6.9922 0.48047-8.7148 2.2969-1.3008 1.3711-1.8945 3.2148-1.3438 5.0156 0.55859 1.8555 2.3359 3.6055 5.5977 4.6172zm20.98 0.94922v12.008h9.5625v-24.012h-9.5625zm-1.9062 0.95312h-19.074c-3.2617 1.0117-5.0391 2.7578-5.6055 4.6133-0.55078 1.8008 0.042968 3.6445 1.3438 5.0156 1.7227 1.8164 4.7617 2.9336 8.7148 2.2969 0.51953-0.082031 1.0078 0.27344 1.0898 0.79297s-0.27344 1.0078-0.79297 1.0898c-1.3125 0.21094-2.5469 0.25391-3.6875 0.15234-1.8047 7.5781 6.8086 10.723 9.7578 6.75 0.3125-0.42188 0.91016-0.51172 1.3359-0.19922 0.42188 0.3125 0.51172 0.91016 0.19922 1.3359-0.57422 0.76953-1.2852 1.3555-2.0781 1.7656 0.58984 2.6797 2.25 4.4883 4.9414 4.1055 2.2344-0.31641 3.8555-2.1875 3.8555-4.4453h0.003906zm16.484 10.805v-27.668c0-0.61328-0.50781-1.1211-1.1211-1.1211h-13.457v3.1133h10.52c0.52734 0 0.95703 0.42969 0.95703 0.95703v25.926c0 0.52734-0.42969 0.95703-0.95703 0.95703h-10.52v3.1133h13.457c0.61328 0 1.1211-0.50781 1.1211-1.1211zm8.2148-29.273c0.39453-1.1328-0.72266-2.3555-2.0273-1.7461-1.0391 0.48828-1.0469 2.1914 0.19531 2.625 0.73828 0.26172 1.5664-0.125 1.832-0.87891zm4.5664 16.941c-0.21094-0.37891-0.39844-0.625-0.83984-0.78125-1.1289-0.39453-2.3594 0.71875-1.7422 2.0273 0.48828 1.0352 2.1914 1.0469 2.625-0.19531 0.11328-0.33203 0.10938-0.70312-0.042969-1.0508zm11.75-2.8047c0.10156-1.1367 0.13281-1.3477 0.027344-2.043-2.7383-18.199-18.418-31.812-37.004-31.812-20.664 0-37.418 16.754-37.418 37.418 0 14.02 9.5195 26.09 16.961 37.914 0.94141 1.4961 1.0938 3.2148 0.42969 4.8516l-3.9609 9.7305h41.672l2.2148-6.0234c0.79688-2.168 2.8047-3.5391 5.1172-3.4922l6.6094 0.13672c1.332 0.027344 2.3945-1.0312 2.3828-2.3594l-0.035156-3.2969c-0.011719-1.2812 0.65625-2.4062 1.7852-3.0078l0.42969-0.22656-3.043-3.0273c-0.45703-0.45703-0.33984-1.2422 0.25391-1.5312l3.8984-1.9102c0.42578-0.21094 0.54297-0.77734 0.51172-1.2344l-0.23047-3.4258c-0.10156-1.5 0.9375-2.8203 2.4219-3.082 1.4062-0.24609 2.8086-0.62109 4.0703-1.1602 0.62109-0.26562 0.8125-1.0391 0.39062-1.5703-8.3984-10.527-7.8086-17.172-7.4844-20.848z" fill-rule="evenodd"/>
<text x="0.0" y="117.5" font-size="5.0" font-weight="bold" font-family="Arbeit Regular, Helvetica, Arial-Unicode, Arial, Sans-serif" fill="#000000">Created by Riski Ayu</text><text x="0.0" y="122.5" font-size="5.0" font-weight="bold" font-family="Arbeit Regular, Helvetica, Arial-Unicode, Arial, Sans-serif" fill="#000000">from Noun Project</text></svg>