<?xml version="1.0" ?><!-- Uploaded to: SVG Repo, www.svgrepo.com, Generator: SVG Repo Mixer Tools -->
<svg fill="#000000" width="800px" height="800px" viewBox="0 0 16 16" id="Layer_1" version="1.1" xml:space="preserve" xmlns="http://www.w3.org/2000/svg" xmlns:xlink="http://www.w3.org/1999/xlink"><title/><path d="M8.1,13.1C5.3,13.1,3,10.8,3,8h1.1c0,2.2,1.7,4,3.9,4s4-1.7,4-3.9c0,0,0-0.1,0-0.1h1.1C13.1,10.8,10.9,13.1,8.1,13.1z"/><path d="M8,0C3.6,0,0,3.6,0,8s3.6,8,8,8s8-3.6,8-8S12.4,0,8,0z M12.9,3H3.1c1.3-1.2,3-2,4.9-2C9.9,1,11.6,1.8,12.9,3z M12,3.5  l-1,2.8h-1l1-2.8H12z M7,3.5L6,6.3H5l1-2.8H7z M8,15c-3.9,0-7-3.1-7-7c0-1.5,0.5-2.9,1.3-4h0.1L3,6c0.3,0.9,0.4,1,1,1h2  c0.6,0,0.7-0.3,1-1l0.7-2h0.7L9,6c0.3,0.7,0.4,1,1,1h2c0.6,0,0.7-0.1,1-1l0.7-2h0.1C14.5,5.1,15,6.5,15,8C15,11.9,11.9,15,8,15z"/></svg>